<mxfile host="app.diagrams.net" modified="2022-03-25T11:26:24.361Z" agent="5.0 (Windows)" etag="PXmfGT2q5bSzydGtRE9x" version="16.6.1" type="github" pages="3">
  <diagram id="4qqPcsir0UCnbVKN_98N" name="Page-1">
    <mxGraphModel dx="1038" dy="536" grid="1" gridSize="10" guides="1" tooltips="1" connect="1" arrows="1" fold="1" page="1" pageScale="1" pageWidth="850" pageHeight="1100" math="0" shadow="0">
      <root>
        <mxCell id="0" />
        <mxCell id="1" parent="0" />
        <mxCell id="hHXyA7jnSkgyxNxwIsMK-1" value="Input" style="swimlane;fontStyle=0;childLayout=stackLayout;horizontal=1;startSize=30;horizontalStack=0;resizeParent=1;resizeParentMax=0;resizeLast=0;collapsible=1;marginBottom=0;" parent="1" vertex="1">
          <mxGeometry x="50" y="30" width="140" height="120" as="geometry" />
        </mxCell>
        <mxCell id="hHXyA7jnSkgyxNxwIsMK-2" value="Mouse" style="text;strokeColor=none;fillColor=none;align=left;verticalAlign=middle;spacingLeft=4;spacingRight=4;overflow=hidden;points=[[0,0.5],[1,0.5]];portConstraint=eastwest;rotatable=0;" parent="hHXyA7jnSkgyxNxwIsMK-1" vertex="1">
          <mxGeometry y="30" width="140" height="30" as="geometry" />
        </mxCell>
        <mxCell id="hHXyA7jnSkgyxNxwIsMK-3" value="Keyboard" style="text;strokeColor=none;fillColor=none;align=left;verticalAlign=middle;spacingLeft=4;spacingRight=4;overflow=hidden;points=[[0,0.5],[1,0.5]];portConstraint=eastwest;rotatable=0;" parent="hHXyA7jnSkgyxNxwIsMK-1" vertex="1">
          <mxGeometry y="60" width="140" height="30" as="geometry" />
        </mxCell>
        <mxCell id="hHXyA7jnSkgyxNxwIsMK-4" value="Joystick" style="text;strokeColor=none;fillColor=none;align=left;verticalAlign=middle;spacingLeft=4;spacingRight=4;overflow=hidden;points=[[0,0.5],[1,0.5]];portConstraint=eastwest;rotatable=0;" parent="hHXyA7jnSkgyxNxwIsMK-1" vertex="1">
          <mxGeometry y="90" width="140" height="30" as="geometry" />
        </mxCell>
        <mxCell id="hHXyA7jnSkgyxNxwIsMK-5" value="Processing" style="swimlane;fontStyle=0;childLayout=stackLayout;horizontal=1;startSize=30;horizontalStack=0;resizeParent=1;resizeParentMax=0;resizeLast=0;collapsible=1;marginBottom=0;" parent="1" vertex="1">
          <mxGeometry x="50" y="370" width="180" height="120" as="geometry" />
        </mxCell>
        <mxCell id="hHXyA7jnSkgyxNxwIsMK-6" value="flash memory controller" style="text;strokeColor=none;fillColor=none;align=left;verticalAlign=middle;spacingLeft=4;spacingRight=4;overflow=hidden;points=[[0,0.5],[1,0.5]];portConstraint=eastwest;rotatable=0;" parent="hHXyA7jnSkgyxNxwIsMK-5" vertex="1">
          <mxGeometry y="30" width="180" height="30" as="geometry" />
        </mxCell>
        <mxCell id="hHXyA7jnSkgyxNxwIsMK-7" value="CPU (central processing unit)" style="text;strokeColor=none;fillColor=none;align=left;verticalAlign=middle;spacingLeft=4;spacingRight=4;overflow=hidden;points=[[0,0.5],[1,0.5]];portConstraint=eastwest;rotatable=0;" parent="hHXyA7jnSkgyxNxwIsMK-5" vertex="1">
          <mxGeometry y="60" width="180" height="30" as="geometry" />
        </mxCell>
        <mxCell id="hHXyA7jnSkgyxNxwIsMK-8" value="GPU (graphics processing unit)" style="text;strokeColor=none;fillColor=none;align=left;verticalAlign=middle;spacingLeft=4;spacingRight=4;overflow=hidden;points=[[0,0.5],[1,0.5]];portConstraint=eastwest;rotatable=0;" parent="hHXyA7jnSkgyxNxwIsMK-5" vertex="1">
          <mxGeometry y="90" width="180" height="30" as="geometry" />
        </mxCell>
        <mxCell id="hHXyA7jnSkgyxNxwIsMK-9" value="Output" style="swimlane;fontStyle=0;childLayout=stackLayout;horizontal=1;startSize=30;horizontalStack=0;resizeParent=1;resizeParentMax=0;resizeLast=0;collapsible=1;marginBottom=0;" parent="1" vertex="1">
          <mxGeometry x="50" y="510" width="140" height="120" as="geometry" />
        </mxCell>
        <mxCell id="hHXyA7jnSkgyxNxwIsMK-10" value="Item 1" style="text;strokeColor=none;fillColor=none;align=left;verticalAlign=middle;spacingLeft=4;spacingRight=4;overflow=hidden;points=[[0,0.5],[1,0.5]];portConstraint=eastwest;rotatable=0;" parent="hHXyA7jnSkgyxNxwIsMK-9" vertex="1">
          <mxGeometry y="30" width="140" height="30" as="geometry" />
        </mxCell>
        <mxCell id="hHXyA7jnSkgyxNxwIsMK-11" value="Item 2" style="text;strokeColor=none;fillColor=none;align=left;verticalAlign=middle;spacingLeft=4;spacingRight=4;overflow=hidden;points=[[0,0.5],[1,0.5]];portConstraint=eastwest;rotatable=0;" parent="hHXyA7jnSkgyxNxwIsMK-9" vertex="1">
          <mxGeometry y="60" width="140" height="30" as="geometry" />
        </mxCell>
        <mxCell id="hHXyA7jnSkgyxNxwIsMK-12" value="Item 3" style="text;strokeColor=none;fillColor=none;align=left;verticalAlign=middle;spacingLeft=4;spacingRight=4;overflow=hidden;points=[[0,0.5],[1,0.5]];portConstraint=eastwest;rotatable=0;" parent="hHXyA7jnSkgyxNxwIsMK-9" vertex="1">
          <mxGeometry y="90" width="140" height="30" as="geometry" />
        </mxCell>
        <mxCell id="hHXyA7jnSkgyxNxwIsMK-13" value="Storage" style="swimlane;fontStyle=0;childLayout=stackLayout;horizontal=1;startSize=30;horizontalStack=0;resizeParent=1;resizeParentMax=0;resizeLast=0;collapsible=1;marginBottom=0;" parent="1" vertex="1">
          <mxGeometry x="50" y="170" width="140" height="180" as="geometry" />
        </mxCell>
        <mxCell id="hHXyA7jnSkgyxNxwIsMK-14" value="Hard disk" style="text;strokeColor=none;fillColor=none;align=left;verticalAlign=middle;spacingLeft=4;spacingRight=4;overflow=hidden;points=[[0,0.5],[1,0.5]];portConstraint=eastwest;rotatable=0;" parent="hHXyA7jnSkgyxNxwIsMK-13" vertex="1">
          <mxGeometry y="30" width="140" height="30" as="geometry" />
        </mxCell>
        <mxCell id="hHXyA7jnSkgyxNxwIsMK-17" value="Flash memory (ex. SSD)" style="text;strokeColor=#d79b00;fillColor=#ffe6cc;align=left;verticalAlign=middle;spacingLeft=4;spacingRight=4;overflow=hidden;points=[[0,0.5],[1,0.5]];portConstraint=eastwest;rotatable=0;" parent="hHXyA7jnSkgyxNxwIsMK-13" vertex="1">
          <mxGeometry y="60" width="140" height="30" as="geometry" />
        </mxCell>
        <mxCell id="hHXyA7jnSkgyxNxwIsMK-16" value="USB stick" style="text;strokeColor=none;fillColor=none;align=left;verticalAlign=middle;spacingLeft=4;spacingRight=4;overflow=hidden;points=[[0,0.5],[1,0.5]];portConstraint=eastwest;rotatable=0;" parent="hHXyA7jnSkgyxNxwIsMK-13" vertex="1">
          <mxGeometry y="90" width="140" height="30" as="geometry" />
        </mxCell>
        <mxCell id="hHXyA7jnSkgyxNxwIsMK-15" value="RAM (random access)" style="text;strokeColor=none;fillColor=none;align=left;verticalAlign=middle;spacingLeft=4;spacingRight=4;overflow=hidden;points=[[0,0.5],[1,0.5]];portConstraint=eastwest;rotatable=0;" parent="hHXyA7jnSkgyxNxwIsMK-13" vertex="1">
          <mxGeometry y="120" width="140" height="30" as="geometry" />
        </mxCell>
        <mxCell id="hHXyA7jnSkgyxNxwIsMK-18" value="ROM (read only)" style="text;strokeColor=none;fillColor=none;align=left;verticalAlign=middle;spacingLeft=4;spacingRight=4;overflow=hidden;points=[[0,0.5],[1,0.5]];portConstraint=eastwest;rotatable=0;" parent="hHXyA7jnSkgyxNxwIsMK-13" vertex="1">
          <mxGeometry y="150" width="140" height="30" as="geometry" />
        </mxCell>
        <mxCell id="hHXyA7jnSkgyxNxwIsMK-19" style="edgeStyle=orthogonalEdgeStyle;rounded=0;orthogonalLoop=1;jettySize=auto;html=1;" parent="1" source="hHXyA7jnSkgyxNxwIsMK-17" target="hHXyA7jnSkgyxNxwIsMK-22" edge="1">
          <mxGeometry relative="1" as="geometry">
            <mxPoint x="330" y="230" as="targetPoint" />
          </mxGeometry>
        </mxCell>
        <mxCell id="hHXyA7jnSkgyxNxwIsMK-20" style="edgeStyle=orthogonalEdgeStyle;rounded=0;orthogonalLoop=1;jettySize=auto;html=1;" parent="1" source="hHXyA7jnSkgyxNxwIsMK-17" target="hHXyA7jnSkgyxNxwIsMK-21" edge="1">
          <mxGeometry relative="1" as="geometry">
            <mxPoint x="330" y="260" as="targetPoint" />
          </mxGeometry>
        </mxCell>
        <mxCell id="hHXyA7jnSkgyxNxwIsMK-30" style="edgeStyle=orthogonalEdgeStyle;rounded=0;orthogonalLoop=1;jettySize=auto;html=1;" parent="1" source="hHXyA7jnSkgyxNxwIsMK-21" target="hHXyA7jnSkgyxNxwIsMK-31" edge="1">
          <mxGeometry relative="1" as="geometry">
            <mxPoint x="400" y="280" as="targetPoint" />
          </mxGeometry>
        </mxCell>
        <mxCell id="hHXyA7jnSkgyxNxwIsMK-21" value="NOR" style="rounded=1;whiteSpace=wrap;html=1;" parent="1" vertex="1">
          <mxGeometry x="250" y="270" width="120" height="20" as="geometry" />
        </mxCell>
        <mxCell id="hHXyA7jnSkgyxNxwIsMK-23" style="edgeStyle=orthogonalEdgeStyle;rounded=0;orthogonalLoop=1;jettySize=auto;html=1;" parent="1" source="hHXyA7jnSkgyxNxwIsMK-22" target="hHXyA7jnSkgyxNxwIsMK-24" edge="1">
          <mxGeometry relative="1" as="geometry">
            <mxPoint x="420" y="210" as="targetPoint" />
          </mxGeometry>
        </mxCell>
        <mxCell id="hHXyA7jnSkgyxNxwIsMK-22" value="NAND" style="rounded=1;whiteSpace=wrap;html=1;" parent="1" vertex="1">
          <mxGeometry x="250" y="200" width="120" height="20" as="geometry" />
        </mxCell>
        <mxCell id="hHXyA7jnSkgyxNxwIsMK-24" value="&lt;div&gt;blocks/ pages&lt;/div&gt;" style="text;html=1;strokeColor=none;fillColor=none;align=center;verticalAlign=middle;whiteSpace=wrap;rounded=0;" parent="1" vertex="1">
          <mxGeometry x="390" y="195" width="90" height="30" as="geometry" />
        </mxCell>
        <mxCell id="hHXyA7jnSkgyxNxwIsMK-31" value="words" style="text;html=1;strokeColor=none;fillColor=none;align=center;verticalAlign=middle;whiteSpace=wrap;rounded=0;" parent="1" vertex="1">
          <mxGeometry x="410" y="265" width="60" height="30" as="geometry" />
        </mxCell>
        <mxCell id="hHXyA7jnSkgyxNxwIsMK-32" value="main memory, the control unit, and the arithmetic logic unit." style="text;html=1;strokeColor=none;fillColor=none;align=center;verticalAlign=middle;whiteSpace=wrap;rounded=0;" parent="1" vertex="1">
          <mxGeometry x="390" y="390" width="320" height="30" as="geometry" />
        </mxCell>
      </root>
    </mxGraphModel>
  </diagram>
  <diagram id="flj5AiFVF4mKr5M_BVsl" name="Page-2">
    <mxGraphModel dx="1038" dy="536" grid="1" gridSize="10" guides="1" tooltips="1" connect="1" arrows="1" fold="1" page="1" pageScale="1" pageWidth="850" pageHeight="1100" math="0" shadow="0">
      <root>
        <mxCell id="_EMic37TwiEbAcZXv331-0" />
        <mxCell id="_EMic37TwiEbAcZXv331-1" parent="_EMic37TwiEbAcZXv331-0" />
        <mxCell id="_EMic37TwiEbAcZXv331-2" value="Software" style="swimlane;fontStyle=0;childLayout=stackLayout;horizontal=1;startSize=30;horizontalStack=0;resizeParent=1;resizeParentMax=0;resizeLast=0;collapsible=1;marginBottom=0;" parent="_EMic37TwiEbAcZXv331-1" vertex="1">
          <mxGeometry x="20" y="20" width="140" height="120" as="geometry" />
        </mxCell>
        <mxCell id="_EMic37TwiEbAcZXv331-3" value="Applications" style="text;strokeColor=none;fillColor=none;align=left;verticalAlign=middle;spacingLeft=4;spacingRight=4;overflow=hidden;points=[[0,0.5],[1,0.5]];portConstraint=eastwest;rotatable=0;" parent="_EMic37TwiEbAcZXv331-2" vertex="1">
          <mxGeometry y="30" width="140" height="30" as="geometry" />
        </mxCell>
        <mxCell id="_EMic37TwiEbAcZXv331-4" value="Operating Systems" style="text;strokeColor=none;fillColor=none;align=left;verticalAlign=middle;spacingLeft=4;spacingRight=4;overflow=hidden;points=[[0,0.5],[1,0.5]];portConstraint=eastwest;rotatable=0;" parent="_EMic37TwiEbAcZXv331-2" vertex="1">
          <mxGeometry y="60" width="140" height="30" as="geometry" />
        </mxCell>
        <mxCell id="_EMic37TwiEbAcZXv331-5" value="Item 3" style="text;strokeColor=none;fillColor=none;align=left;verticalAlign=middle;spacingLeft=4;spacingRight=4;overflow=hidden;points=[[0,0.5],[1,0.5]];portConstraint=eastwest;rotatable=0;" parent="_EMic37TwiEbAcZXv331-2" vertex="1">
          <mxGeometry y="90" width="140" height="30" as="geometry" />
        </mxCell>
        <mxCell id="_EMic37TwiEbAcZXv331-7" value="&lt;h1&gt;Bugs&lt;br&gt;&lt;/h1&gt;&lt;p&gt;Bugs may be caused by typos or by not following the rules or format of the programming language.&lt;/p&gt;" style="text;html=1;strokeColor=#6c8ebf;fillColor=#dae8fc;spacing=5;spacingTop=-20;whiteSpace=wrap;overflow=hidden;rounded=0;" parent="_EMic37TwiEbAcZXv331-1" vertex="1">
          <mxGeometry x="580" y="190" width="190" height="120" as="geometry" />
        </mxCell>
        <mxCell id="_EMic37TwiEbAcZXv331-8" value="&lt;h1&gt;Driver&lt;/h1&gt;&lt;p&gt;A program that tells the computer how to interact with a piece of hardware.&lt;/p&gt;" style="text;html=1;strokeColor=#82b366;fillColor=#d5e8d4;spacing=5;spacingTop=-20;whiteSpace=wrap;overflow=hidden;rounded=0;" parent="_EMic37TwiEbAcZXv331-1" vertex="1">
          <mxGeometry x="580" y="330" width="190" height="120" as="geometry" />
        </mxCell>
        <mxCell id="_EMic37TwiEbAcZXv331-9" value="Loops" style="swimlane;fontStyle=0;childLayout=stackLayout;horizontal=1;startSize=30;horizontalStack=0;resizeParent=1;resizeParentMax=0;resizeLast=0;collapsible=1;marginBottom=0;" parent="_EMic37TwiEbAcZXv331-1" vertex="1">
          <mxGeometry x="350" y="180" width="140" height="120" as="geometry" />
        </mxCell>
        <mxCell id="_EMic37TwiEbAcZXv331-10" value="for" style="text;strokeColor=none;fillColor=none;align=left;verticalAlign=middle;spacingLeft=4;spacingRight=4;overflow=hidden;points=[[0,0.5],[1,0.5]];portConstraint=eastwest;rotatable=0;" parent="_EMic37TwiEbAcZXv331-9" vertex="1">
          <mxGeometry y="30" width="140" height="30" as="geometry" />
        </mxCell>
        <mxCell id="_EMic37TwiEbAcZXv331-11" value="while" style="text;strokeColor=none;fillColor=none;align=left;verticalAlign=middle;spacingLeft=4;spacingRight=4;overflow=hidden;points=[[0,0.5],[1,0.5]];portConstraint=eastwest;rotatable=0;" parent="_EMic37TwiEbAcZXv331-9" vertex="1">
          <mxGeometry y="60" width="140" height="30" as="geometry" />
        </mxCell>
        <mxCell id="_EMic37TwiEbAcZXv331-12" value="nested" style="text;strokeColor=none;fillColor=none;align=left;verticalAlign=middle;spacingLeft=4;spacingRight=4;overflow=hidden;points=[[0,0.5],[1,0.5]];portConstraint=eastwest;rotatable=0;" parent="_EMic37TwiEbAcZXv331-9" vertex="1">
          <mxGeometry y="90" width="140" height="30" as="geometry" />
        </mxCell>
      </root>
    </mxGraphModel>
  </diagram>
  <diagram id="vNyJMpbDxFfotPSCUwwD" name="Page-3">
    <mxGraphModel dx="1038" dy="536" grid="1" gridSize="10" guides="1" tooltips="1" connect="1" arrows="1" fold="1" page="1" pageScale="1" pageWidth="850" pageHeight="1100" math="0" shadow="0">
      <root>
        <mxCell id="TY_JBQjzeWMBahvBvJDz-0" />
        <mxCell id="TY_JBQjzeWMBahvBvJDz-1" parent="TY_JBQjzeWMBahvBvJDz-0" />
        <mxCell id="TY_JBQjzeWMBahvBvJDz-2" value="" style="rounded=1;whiteSpace=wrap;html=1;" vertex="1" parent="TY_JBQjzeWMBahvBvJDz-1">
          <mxGeometry x="720" y="40" width="120" height="60" as="geometry" />
        </mxCell>
        <mxCell id="TY_JBQjzeWMBahvBvJDz-3" value="" style="rounded=1;whiteSpace=wrap;html=1;" vertex="1" parent="TY_JBQjzeWMBahvBvJDz-1">
          <mxGeometry x="690" y="310" width="120" height="60" as="geometry" />
        </mxCell>
        <mxCell id="TY_JBQjzeWMBahvBvJDz-4" value="" style="rounded=1;whiteSpace=wrap;html=1;" vertex="1" parent="TY_JBQjzeWMBahvBvJDz-1">
          <mxGeometry x="710" y="177" width="120" height="60" as="geometry" />
        </mxCell>
        <mxCell id="TY_JBQjzeWMBahvBvJDz-5" value="other parts of OS" style="rounded=1;whiteSpace=wrap;html=1;" vertex="1" parent="TY_JBQjzeWMBahvBvJDz-1">
          <mxGeometry x="220" y="250" width="110" height="30" as="geometry" />
        </mxCell>
        <mxCell id="TY_JBQjzeWMBahvBvJDz-6" value="local buffer" style="rounded=1;whiteSpace=wrap;html=1;" vertex="1" parent="TY_JBQjzeWMBahvBvJDz-1">
          <mxGeometry x="576" y="129" width="90" height="30" as="geometry" />
        </mxCell>
        <mxCell id="TY_JBQjzeWMBahvBvJDz-12" style="edgeStyle=orthogonalEdgeStyle;rounded=0;orthogonalLoop=1;jettySize=auto;html=1;entryX=0.5;entryY=1;entryDx=0;entryDy=0;" edge="1" parent="TY_JBQjzeWMBahvBvJDz-1" source="TY_JBQjzeWMBahvBvJDz-7" target="TY_JBQjzeWMBahvBvJDz-8">
          <mxGeometry relative="1" as="geometry">
            <Array as="points">
              <mxPoint x="361" y="200" />
              <mxPoint x="110" y="200" />
            </Array>
          </mxGeometry>
        </mxCell>
        <mxCell id="TY_JBQjzeWMBahvBvJDz-14" value="" style="edgeStyle=orthogonalEdgeStyle;rounded=0;orthogonalLoop=1;jettySize=auto;html=1;dashed=1;endArrow=box;endFill=0;" edge="1" parent="TY_JBQjzeWMBahvBvJDz-1" source="TY_JBQjzeWMBahvBvJDz-7" target="TY_JBQjzeWMBahvBvJDz-13">
          <mxGeometry relative="1" as="geometry" />
        </mxCell>
        <mxCell id="TY_JBQjzeWMBahvBvJDz-15" value="" style="edgeStyle=orthogonalEdgeStyle;rounded=0;orthogonalLoop=1;jettySize=auto;html=1;" edge="1" parent="TY_JBQjzeWMBahvBvJDz-1" source="TY_JBQjzeWMBahvBvJDz-7" target="TY_JBQjzeWMBahvBvJDz-6">
          <mxGeometry relative="1" as="geometry" />
        </mxCell>
        <mxCell id="TY_JBQjzeWMBahvBvJDz-7" value="device controller" style="rounded=1;whiteSpace=wrap;html=1;" vertex="1" parent="TY_JBQjzeWMBahvBvJDz-1">
          <mxGeometry x="316" y="129" width="90" height="30" as="geometry" />
        </mxCell>
        <mxCell id="TY_JBQjzeWMBahvBvJDz-9" value="" style="edgeStyle=orthogonalEdgeStyle;rounded=0;orthogonalLoop=1;jettySize=auto;html=1;" edge="1" parent="TY_JBQjzeWMBahvBvJDz-1" source="TY_JBQjzeWMBahvBvJDz-8" target="TY_JBQjzeWMBahvBvJDz-7">
          <mxGeometry relative="1" as="geometry" />
        </mxCell>
        <mxCell id="TY_JBQjzeWMBahvBvJDz-18" style="edgeStyle=orthogonalEdgeStyle;rounded=0;orthogonalLoop=1;jettySize=auto;html=1;entryX=0;entryY=0.5;entryDx=0;entryDy=0;fontColor=#67AB9F;endArrow=classic;endFill=1;startArrow=none;exitX=0.25;exitY=1;exitDx=0;exitDy=0;" edge="1" parent="TY_JBQjzeWMBahvBvJDz-1" source="TY_JBQjzeWMBahvBvJDz-8" target="TY_JBQjzeWMBahvBvJDz-5">
          <mxGeometry relative="1" as="geometry">
            <Array as="points">
              <mxPoint x="90" y="265" />
            </Array>
          </mxGeometry>
        </mxCell>
        <mxCell id="TY_JBQjzeWMBahvBvJDz-8" value="device driver" style="rounded=1;whiteSpace=wrap;html=1;" vertex="1" parent="TY_JBQjzeWMBahvBvJDz-1">
          <mxGeometry x="70" y="129" width="80" height="30" as="geometry" />
        </mxCell>
        <mxCell id="TY_JBQjzeWMBahvBvJDz-13" value="examinate data (what action to take)" style="ellipse;whiteSpace=wrap;html=1;fillColor=#fff2cc;strokeColor=#d6b656;dashed=1;" vertex="1" parent="TY_JBQjzeWMBahvBvJDz-1">
          <mxGeometry x="299" y="30" width="124" height="70" as="geometry" />
        </mxCell>
        <mxCell id="TY_JBQjzeWMBahvBvJDz-17" value="load apropriate data" style="text;html=1;align=center;verticalAlign=middle;whiteSpace=wrap;rounded=0;fontColor=#67AB9F;" vertex="1" parent="TY_JBQjzeWMBahvBvJDz-1">
          <mxGeometry x="170" y="120" width="130" height="30" as="geometry" />
        </mxCell>
        <mxCell id="TY_JBQjzeWMBahvBvJDz-20" value="inform about the data transfer" style="text;html=1;strokeColor=none;fillColor=none;align=center;verticalAlign=middle;whiteSpace=wrap;rounded=0;dashed=1;fontColor=#67AB9F;" vertex="1" parent="TY_JBQjzeWMBahvBvJDz-1">
          <mxGeometry x="150" y="177" width="170" height="30" as="geometry" />
        </mxCell>
        <mxCell id="TY_JBQjzeWMBahvBvJDz-21" value="transfer data" style="text;html=1;strokeColor=none;fillColor=none;align=center;verticalAlign=middle;whiteSpace=wrap;rounded=0;dashed=1;fontColor=#67AB9F;" vertex="1" parent="TY_JBQjzeWMBahvBvJDz-1">
          <mxGeometry x="430" y="120" width="90" height="30" as="geometry" />
        </mxCell>
        <mxCell id="TY_JBQjzeWMBahvBvJDz-19" value="give control to" style="text;html=1;strokeColor=none;fillColor=none;align=center;verticalAlign=middle;whiteSpace=wrap;rounded=0;dashed=1;fontColor=#67AB9F;" vertex="1" parent="TY_JBQjzeWMBahvBvJDz-1">
          <mxGeometry x="90" y="240" width="90" height="30" as="geometry" />
        </mxCell>
      </root>
    </mxGraphModel>
  </diagram>
</mxfile>
